<?xml version="1.0" encoding="iso-8859-1"?>
<!-- Generator: Adobe Illustrator 19.0.0, SVG Export Plug-In . SVG Version: 6.00 Build 0)  -->
<svg version="1.1" id="Capa_1" xmlns="http://www.w3.org/2000/svg" xmlns:xlink="http://www.w3.org/1999/xlink" x="0px" y="0px"
	 viewBox="0 0 480 480" style="enable-background:new 0 0 480 480;" xml:space="preserve">
<path style="fill:#DEDEDE;" d="M40,68h16v176H40V68z"/>
<path style="fill:#D64333;" d="M93.984,65.352C69.361,46.322,39.12,35.999,8,36v32c25.91-0.018,51.066,8.722,71.384,24.8
	C124.352,128.416,226.328,206.328,232,212l24-24L93.984,65.352z"/>
<path style="fill:#DE4C3C;" d="M384,76c-10.386,0-20.491,3.369-28.8,9.6L208,196L61.888,219.376
	c-31.049,4.968-53.89,31.756-53.888,63.2V332c0,17.673,14.327,32,32,32h440V76L384,76z"/>
<g>
	<path style="fill:#D64333;" d="M104,356c-0.017-30.938,13.769-60.271,37.6-80H8.368c-0.236,2.184-0.359,4.379-0.368,6.576V332
		c0,17.673,14.327,32,32,32h64.4C104.192,361.352,104,358.704,104,356z"/>
	<path style="fill:#D64333;" d="M274.4,276c23.831,19.729,37.617,49.062,37.6,80c0,2.704-0.192,5.352-0.4,8H480v-88H274.4z"/>
</g>
<path style="fill:#87CED9;" d="M395.064,108c-7.17,0.001-14.131,2.41-19.768,6.84l-85.112,66.872
	c-3.473,2.732-4.074,7.761-1.342,11.234c1.516,1.928,3.833,3.054,6.286,3.054H480v-88H395.064z"/>
<path style="fill:#BF362C;" d="M400,228h40c8.837,0,16,7.163,16,16l0,0c0,8.837-7.163,16-16,16h-40c-8.837,0-16-7.163-16-16l0,0
	C384,235.164,391.164,228,400,228z"/>
<path style="fill:#EBEBEB;" d="M88,276c0-8.837-7.163-16-16-16H12.112C9.387,267.215,7.994,274.864,8,282.576V300h80V276z"/>
<path style="fill:#71C4D1;" d="M368,196h112v-88h-24L368,196z"/>
<path style="fill:#BF362C;" d="M264,308h216v16H264V308z"/>
<path style="fill:#5E5E5F;" d="M208,268c-48.601,0-88,39.399-88,88l0,0c0,2.704,0.168,5.36,0.4,8
	c4.629,48.38,47.601,83.848,95.981,79.219c41.976-4.016,75.203-37.243,79.219-79.219c0.232-2.64,0.4-5.296,0.4-8
	C296,307.399,256.601,268,208,268L208,268L208,268z"/>
<path style="fill:#EBEBEB;" d="M208,308c-26.363,0.146-47.617,21.637-47.471,48s21.637,47.617,48,47.471
	C234.687,403.326,255.855,382.157,256,356C256,329.491,234.51,308,208,308z"/>
<path style="fill:#565657;" d="M261.24,286.048c-4.508,13.086-10.676,25.539-18.352,37.056
	c18.212,19.191,17.418,49.512-1.773,67.723c-19.191,18.212-49.512,17.418-67.723-1.773c-2.171-2.288-4.111-4.785-5.792-7.454
	c-12.787,4.931-26.018,8.62-39.512,11.016c20.164,44.162,72.311,63.617,116.473,43.453c28.721-13.114,48.203-40.623,51.038-72.069
	c0.232-2.64,0.4-5.296,0.4-8C295.998,328.528,283.134,302.642,261.24,286.048z"/>
<path style="fill:#DEDEDE;" d="M167.6,381.6c14.117,22.37,43.696,29.06,66.066,14.943c22.37-14.117,29.06-43.696,14.943-66.066
	c-1.663-2.635-3.579-5.102-5.722-7.365C224.41,349.892,198.118,370.317,167.6,381.6z"/>
<path d="M370.352,108.544l-85.112,66.88c-6.946,5.463-8.147,15.522-2.684,22.468c3.035,3.858,7.672,6.11,12.58,6.108H480v-16
	H295.136l85.096-66.872c4.238-3.313,9.461-5.117,14.84-5.128H480v-16h-84.928C386.111,100.014,377.41,103.022,370.352,108.544
	L370.352,108.544z"/>
<path d="M350.4,79.2L236,164.992L98.872,59.024C72.824,38.959,40.881,28.054,8,28c-4.418,0-8,3.582-8,8v32c0,4.418,3.582,8,8,8
	c10.859,0.034,21.65,1.723,32,5.008v137.08c-24.562,12.08-40.088,37.108-40,64.48V332c0.026,22.08,17.92,39.974,40,40h73.44
	c8.783,52.224,58.239,87.44,110.463,78.657c40.302-6.778,71.879-38.355,78.657-78.657H480v-16H304
	c-0.023-10.908-1.917-21.732-5.6-32H480v-16H291.016c-26.383-45.826-84.919-61.588-130.745-35.206
	c-11.845,6.819-22.093,16.096-30.055,27.206H96v-24c0-13.255-10.745-24-24-24H25.056c8.627-13.285,22.495-22.276,38.144-24.728
	l146.104-23.376c1.269-0.21,2.468-0.724,3.496-1.496L360,92c6.93-5.181,15.347-7.987,24-8h96V68h-96
	C371.887,68.019,360.103,71.947,350.4,79.2L350.4,79.2z M128.752,345.6c0.112-0.856,0.248-1.704,0.392-2.552
	c0.485-3.025,1.145-6.019,1.976-8.968c0.104-0.368,0.176-0.752,0.288-1.12c1.021-3.351,2.264-6.63,3.72-9.816
	c0.248-0.552,0.52-1.088,0.8-1.6c19.002-39.844,66.705-56.74,106.549-37.739C270.306,297.077,288.02,325.17,288,356
	c0,2.456-0.16,4.864-0.376,7.264c-3.996,43.975-42.884,76.385-86.859,72.389c-38.44-3.493-68.897-33.949-72.389-72.389
	c-0.216-2.4-0.376-4.8-0.376-7.264C128.024,352.521,128.275,349.047,128.752,345.6L128.752,345.6z M120.752,316
	c-0.152,0.32-0.248,0.664-0.392,0.984c-0.944,2.112-1.776,4.28-2.568,6.464c-0.344,0.944-0.72,1.872-1.032,2.832
	c-0.744,2.272-1.352,4.6-1.928,6.944c-0.216,0.904-0.496,1.792-0.696,2.704c-0.528,2.48-0.896,5.016-1.232,7.568
	c-0.104,0.8-0.28,1.6-0.368,2.4c-0.356,3.356-0.535,6.729-0.536,10.104H40c-13.255,0-24-10.745-24-24v-16h104.8H120.752z M72,268
	c4.418,0,8,3.582,8,8v24H16v-17.432c0.001-4.919,0.644-9.816,1.912-14.568H72z M60.624,211.48c-1.6,0.248-3.096,0.6-4.624,0.952
	V87.48c6.515,3.231,12.681,7.123,18.4,11.616c55.32,43.8,95.576,75.92,115.032,91.768L60.624,211.48z M208.36,185.728
	c-17.952-15.04-75.456-60.752-124-99.2C64.751,71.067,40.917,61.91,16,60.264v-16c26.557,1.652,52.013,11.208,73.096,27.44
	l133.6,103.272L208.36,185.728z"/>
<path d="M208,412c31.104,0.159,56.448-24.927,56.607-56.032c0.159-31.104-24.927-56.448-56.032-56.607
	c-31.104-0.159-56.448,24.927-56.607,56.032c-0.017,3.33,0.261,6.654,0.832,9.935C157.268,392.315,180.646,412.081,208,412z
	 M208,316c22.08,0.026,39.974,17.92,40,40c0,22.091-17.909,40-40,40s-40-17.909-40-40C168.027,333.92,185.92,316.027,208,316z"/>
<path d="M400,220c-13.255,0-24,10.745-24,24c0,13.255,10.745,24,24,24h40c13.255,0,24-10.745,24-24c0-13.255-10.745-24-24-24H400z
	 M448,244c0,4.418-3.582,8-8,8h-40c-4.418,0-8-3.582-8-8s3.582-8,8-8h40C444.419,236,448,239.582,448,244z"/>
<g>
</g>
<g>
</g>
<g>
</g>
<g>
</g>
<g>
</g>
<g>
</g>
<g>
</g>
<g>
</g>
<g>
</g>
<g>
</g>
<g>
</g>
<g>
</g>
<g>
</g>
<g>
</g>
<g>
</g>
</svg>
